<?xml version="1.0" encoding="utf-8"?>
<svg xmlns="http://www.w3.org/2000/svg" height="512pt" version="1.1" viewBox="0 0 512 512" width="512pt">
<path d="M 0.00 0.00 L 5.50 0.00 C 17.69 17.67 32.41 33.35 47.08 48.94 C 50.33 52.55 54.40 55.35 57.25 59.32 C 38.17 59.18 19.08 59.18 0.00 59.37 L 0.00 0.00 Z" fill="#f7edc7" opacity="1.00" stroke="#f7edc7" stroke-width="0.25"/>
<path d="M 5.50 0.00 L 188.95 0.00 C 170.91 18.29 152.72 36.43 134.39 54.43 C 132.03 56.47 130.41 59.80 127.16 60.48 L 126.41 60.35 C 124.41 56.54 120.51 54.42 117.60 51.41 C 110.40 44.27 102.86 37.49 95.55 30.48 C 94.07 29.51 93.07 31.18 92.08 32.01 C 82.73 41.56 72.58 50.25 63.11 59.67 C 61.15 59.57 59.20 59.43 57.25 59.32 C 54.40 55.35 50.33 52.55 47.08 48.94 C 32.41 33.35 17.69 17.67 5.50 0.00 Z" fill="#f47d10" opacity="1.00" stroke="#f47d10" stroke-width="0.25"/>
<path d="M 188.95 0.00 L 256.43 0.00 C 248.85 8.56 240.48 16.35 232.66 24.68 C 221.25 36.79 209.49 48.58 196.97 59.55 C 214.67 58.68 232.43 59.49 250.15 59.00 C 252.60 65.88 258.26 70.72 263.38 75.62 C 278.74 90.95 294.41 105.98 310.39 120.67 C 312.39 122.77 315.32 123.55 317.57 125.24 C 317.87 146.40 317.08 167.59 317.77 188.74 C 322.79 186.42 326.42 182.03 330.41 178.33 C 337.38 171.59 344.12 164.59 351.32 158.09 C 352.49 156.52 353.87 158.49 354.80 159.23 C 362.01 166.01 369.09 172.93 376.14 179.88 C 378.94 182.64 381.84 185.34 384.10 188.58 C 375.75 188.12 367.38 188.59 359.02 188.48 C 345.34 188.60 331.66 188.11 318.00 188.65 C 317.39 209.97 318.44 231.35 317.39 252.65 C 317.24 273.51 317.14 294.38 317.33 315.24 C 316.90 315.44 316.04 315.84 315.61 316.04 C 311.88 315.53 309.81 312.14 307.24 309.82 C 294.27 297.12 281.40 284.34 268.52 271.56 C 264.36 267.37 259.62 263.77 255.85 259.21 C 255.42 257.23 255.14 255.22 254.82 253.22 C 248.23 252.46 241.59 252.84 234.98 252.79 C 221.33 252.77 207.68 252.89 194.03 252.72 C 190.45 236.56 187.73 220.23 184.06 204.09 C 180.90 184.94 174.85 166.33 172.58 147.04 C 170.08 150.66 166.83 153.64 163.87 156.87 C 153.75 167.39 144.09 178.35 133.59 188.49 C 132.40 189.71 130.49 189.06 128.99 189.25 C 106.84 189.17 84.69 189.29 62.54 188.61 C 62.41 209.87 62.39 231.15 62.54 252.42 C 41.70 252.66 20.85 252.39 0.00 252.51 L 0.00 220.34 C 4.18 214.47 9.26 209.33 13.79 203.74 C 18.10 198.42 22.53 193.20 26.85 187.89 C 17.91 187.56 8.95 187.74 0.00 187.76 L 0.00 187.35 C 10.15 187.12 20.31 187.45 30.46 187.23 C 41.00 187.08 51.55 187.32 62.10 187.31 C 70.98 173.62 78.35 158.99 87.23 145.28 C 91.49 137.82 96.88 130.92 99.97 122.85 C 121.31 122.24 142.68 122.78 164.04 122.72 C 173.46 122.76 182.89 122.68 192.30 123.43 C 192.17 144.58 192.00 165.74 192.48 186.88 L 193.02 186.82 C 206.67 186.44 220.32 186.67 233.97 186.63 C 248.37 186.71 262.77 186.56 277.15 187.13 C 275.76 180.20 272.31 173.93 269.85 167.35 C 266.10 157.34 262.33 147.33 258.78 137.24 C 257.28 133.27 256.43 129.03 254.42 125.25 C 244.44 116.01 236.04 105.24 226.60 95.47 C 216.72 84.66 206.40 74.27 196.36 63.62 C 195.04 62.50 193.94 60.49 191.99 60.62 C 170.47 60.81 148.95 60.42 127.43 60.52 C 127.36 60.51 127.23 60.49 127.16 60.48 C 130.41 59.80 132.03 56.47 134.39 54.43 C 152.72 36.43 170.91 18.29 188.95 0.00 Z" fill="#00486c" opacity="1.00" stroke="#00486c" stroke-width="0.25"/>
<path d="M 256.43 0.00 L 333.54 0.00 C 334.42 7.60 334.96 15.23 335.52 22.86 C 335.63 28.59 336.82 34.29 336.38 40.02 C 334.72 44.13 331.38 47.24 328.56 50.56 C 325.61 53.56 323.23 57.26 319.46 59.32 C 312.35 58.40 305.16 59.03 298.02 58.81 C 282.06 58.92 266.09 58.41 250.15 59.00 C 232.43 59.49 214.67 58.68 196.97 59.55 C 209.49 48.58 221.25 36.79 232.66 24.68 C 240.48 16.35 248.85 8.56 256.43 0.00 Z" fill="#f7edc7" opacity="1.00" stroke="#f7edc7" stroke-width="0.25"/>
<path d="M 333.54 0.00 L 380.90 0.00 C 371.94 9.67 362.91 19.27 353.78 28.78 C 352.88 29.75 351.20 31.05 352.64 32.37 C 358.85 39.80 366.04 46.32 373.02 53.01 C 375.90 55.54 378.63 58.31 381.85 60.42 C 382.34 60.40 383.30 60.37 383.79 60.36 C 382.65 64.28 379.13 66.67 376.48 69.52 C 363.07 82.42 350.03 95.70 336.82 108.81 C 332.35 114.03 326.80 118.14 322.26 123.27 L 323.79 123.23 C 322.35 123.41 320.92 123.67 319.50 123.90 C 319.61 102.37 319.13 80.84 319.46 59.32 C 323.23 57.26 325.61 53.56 328.56 50.56 C 331.38 47.24 334.72 44.13 336.38 40.02 C 336.82 34.29 335.63 28.59 335.52 22.86 C 334.96 15.23 334.42 7.60 333.54 0.00 Z" fill="#00486c" opacity="1.00" stroke="#00486c" stroke-width="0.25"/>
<path d="M 380.90 0.00 L 409.43 0.00 C 406.62 6.07 403.54 12.01 401.06 18.23 C 396.00 30.64 390.45 42.83 385.15 55.14 C 384.61 56.42 384.32 57.79 384.01 59.15 C 395.01 59.12 406.03 59.56 417.01 58.78 C 427.41 59.00 437.82 58.58 448.22 59.04 C 442.65 68.89 439.46 79.81 434.87 90.11 C 433.60 93.63 431.49 97.07 431.38 100.86 C 434.38 110.38 439.16 119.31 441.69 128.96 L 441.23 129.81 C 435.27 137.89 428.36 145.19 421.79 152.76 C 414.39 161.09 407.42 169.79 400.72 178.70 C 398.60 181.46 396.05 183.96 394.73 187.25 C 407.83 187.11 420.93 187.04 434.04 187.16 C 438.87 187.11 443.74 187.44 448.56 186.82 C 448.81 165.86 448.88 144.90 448.89 123.95 C 449.53 102.76 449.19 81.54 449.57 60.34 C 450.62 60.50 451.68 60.74 452.51 61.48 C 458.22 65.70 463.35 70.61 468.54 75.43 C 483.32 88.47 497.64 102.03 512.00 115.53 L 512.00 128.74 C 493.94 145.77 476.25 163.22 458.25 180.32 C 455.94 182.40 453.41 184.30 451.72 186.96 C 463.40 187.45 475.10 187.12 486.79 187.21 C 486.68 187.61 486.47 188.41 486.37 188.81 L 486.39 187.95 C 474.62 187.53 462.83 188.21 451.06 187.60 C 434.37 188.09 417.67 187.53 400.97 187.86 C 395.35 188.11 389.74 188.79 384.10 188.58 C 381.84 185.34 378.94 182.64 376.14 179.88 C 369.09 172.93 362.01 166.01 354.80 159.23 C 353.87 158.49 352.49 156.52 351.32 158.09 C 344.12 164.59 337.38 171.59 330.41 178.33 C 326.42 182.03 322.79 186.42 317.77 188.74 C 317.08 167.59 317.87 146.40 317.57 125.24 C 315.32 123.55 312.39 122.77 310.39 120.67 C 294.41 105.98 278.74 90.95 263.38 75.62 C 258.26 70.72 252.60 65.88 250.15 59.00 C 266.09 58.41 282.06 58.92 298.02 58.81 C 305.16 59.03 312.35 58.40 319.46 59.32 C 319.13 80.84 319.61 102.37 319.50 123.90 C 320.92 123.67 322.35 123.41 323.79 123.23 C 343.69 122.38 363.62 123.06 383.53 122.69 C 384.91 115.37 389.50 109.28 392.20 102.45 C 398.22 88.04 405.36 74.13 411.63 59.83 C 402.35 60.10 393.00 59.10 383.79 60.36 C 383.30 60.37 382.34 60.40 381.85 60.42 C 378.63 58.31 375.90 55.54 373.02 53.01 C 366.04 46.32 358.85 39.80 352.64 32.37 C 351.20 31.05 352.88 29.75 353.78 28.78 C 362.91 19.27 371.94 9.67 380.90 0.00 Z" fill="#f47d10" opacity="1.00" stroke="#f47d10" stroke-width="0.25"/>
<path d="M 409.43 0.00 L 448.10 0.00 C 447.66 19.68 448.32 39.36 448.22 59.04 C 437.82 58.58 427.41 59.00 417.01 58.78 C 406.03 59.56 395.01 59.12 384.01 59.15 C 384.32 57.79 384.61 56.42 385.15 55.14 C 390.45 42.83 396.00 30.64 401.06 18.23 C 403.54 12.01 406.62 6.07 409.43 0.00 Z" fill="#f7edc7" opacity="1.00" stroke="#f7edc7" stroke-width="0.25"/>
<path d="M 448.10 0.00 L 509.62 0.00 C 496.39 14.94 482.18 28.96 468.27 43.26 C 462.87 48.77 456.79 53.64 451.86 59.60 C 464.56 58.77 477.29 59.52 489.99 58.93 C 497.33 58.80 504.66 58.92 512.00 58.83 L 512.00 115.53 C 497.64 102.03 483.32 88.47 468.54 75.43 C 463.35 70.61 458.22 65.70 452.51 61.48 C 451.68 60.74 450.62 60.50 449.57 60.34 C 449.19 81.54 449.53 102.76 448.89 123.95 C 445.43 124.48 443.51 127.51 441.23 129.81 L 441.69 128.96 C 439.16 119.31 434.38 110.38 431.38 100.86 C 431.49 97.07 433.60 93.63 434.87 90.11 C 439.46 79.81 442.65 68.89 448.22 59.04 C 448.32 39.36 447.66 19.68 448.10 0.00 Z" fill="#00486c" opacity="1.00" stroke="#00486c" stroke-width="0.25"/>
<path d="M 509.62 0.00 L 512.00 0.00 L 512.00 58.83 C 504.66 58.92 497.33 58.80 489.99 58.93 C 477.29 59.52 464.56 58.77 451.86 59.60 C 456.79 53.64 462.87 48.77 468.27 43.26 C 482.18 28.96 496.39 14.94 509.62 0.00 Z" fill="#f7edc7" opacity="1.00" stroke="#f7edc7" stroke-width="0.25"/>
<path d="M 92.08 32.01 C 93.07 31.18 94.07 29.51 95.55 30.48 C 102.86 37.49 110.40 44.27 117.60 51.41 C 120.51 54.42 124.41 56.54 126.41 60.35 C 121.33 59.44 116.14 59.98 111.01 59.84 C 94.89 59.93 78.75 59.31 62.64 60.07 C 62.26 81.34 62.04 102.63 62.42 123.90 L 61.72 124.47 C 41.15 124.88 20.57 124.62 0.00 124.70 L 0.00 98.67 C 10.46 87.56 21.39 76.90 31.52 65.48 C 33.13 63.77 34.59 61.92 35.78 59.90 C 23.86 59.59 11.93 59.79 0.00 59.78 L 0.00 59.37 C 19.08 59.18 38.17 59.18 57.25 59.32 C 59.20 59.43 61.15 59.57 63.11 59.67 C 72.58 50.25 82.73 41.56 92.08 32.01 Z" fill="#00486c" opacity="1.00" stroke="#00486c" stroke-width="0.25"/>
<path d="M 0.00 59.78 C 11.93 59.79 23.86 59.59 35.78 59.90 C 34.59 61.92 33.13 63.77 31.52 65.48 C 21.39 76.90 10.46 87.56 0.00 98.67 L 0.00 59.78 Z" fill="#f7edc7" opacity="1.00" stroke="#f7edc7" stroke-width="0.25"/>
<path d="M 62.64 60.07 C 78.75 59.31 94.89 59.93 111.01 59.84 C 116.14 59.98 121.33 59.44 126.41 60.35 L 127.16 60.48 C 127.23 60.49 127.36 60.51 127.43 60.52 C 129.41 65.26 131.34 70.23 134.88 74.06 C 141.12 80.94 148.39 86.75 155.51 92.67 C 163.58 99.92 172.25 106.46 180.61 113.36 C 184.52 116.66 189.74 118.81 192.30 123.43 C 182.89 122.68 173.46 122.76 164.04 122.72 C 142.68 122.78 121.31 122.24 99.97 122.85 C 96.88 130.92 91.49 137.82 87.23 145.28 C 78.35 158.99 70.98 173.62 62.10 187.31 C 61.56 183.58 61.64 179.81 61.70 176.05 C 61.66 158.85 61.55 141.66 61.72 124.47 L 62.42 123.90 C 62.04 102.63 62.26 81.34 62.64 60.07 Z" fill="#f7edc7" opacity="1.00" stroke="#f7edc7" stroke-width="0.25"/>
<path d="M 383.79 60.36 C 393.00 59.10 402.35 60.10 411.63 59.83 C 405.36 74.13 398.22 88.04 392.20 102.45 C 389.50 109.28 384.91 115.37 383.53 122.69 C 363.62 123.06 343.69 122.38 323.79 123.23 L 322.26 123.27 C 326.80 118.14 332.35 114.03 336.82 108.81 C 350.03 95.70 363.07 82.42 376.48 69.52 C 379.13 66.67 382.65 64.28 383.79 60.36 Z" fill="#f7edc7" opacity="1.00" stroke="#f7edc7" stroke-width="0.25"/>
<path d="M 127.43 60.52 C 148.95 60.42 170.47 60.81 191.99 60.62 C 193.94 60.49 195.04 62.50 196.36 63.62 C 206.40 74.27 216.72 84.66 226.60 95.47 C 236.04 105.24 244.44 116.01 254.42 125.25 C 254.54 125.70 254.78 126.59 254.89 127.03 C 237.90 144.64 220.44 161.81 203.05 179.02 C 199.86 181.80 196.79 184.84 193.02 186.82 L 192.48 186.88 C 192.00 165.74 192.17 144.58 192.30 123.43 C 189.74 118.81 184.52 116.66 180.61 113.36 C 172.25 106.46 163.58 99.92 155.51 92.67 C 148.39 86.75 141.12 80.94 134.88 74.06 C 131.34 70.23 129.41 65.26 127.43 60.52 Z" fill="#f47d10" opacity="1.00" stroke="#f47d10" stroke-width="0.25"/>
<path d="M 0.00 124.70 C 20.57 124.62 41.15 124.88 61.72 124.47 C 61.55 141.66 61.66 158.85 61.70 176.05 C 61.64 179.81 61.56 183.58 62.10 187.31 C 51.55 187.32 41.00 187.08 30.46 187.23 C 28.15 182.83 24.20 179.68 21.35 175.67 C 14.00 165.92 6.92 155.95 0.00 145.89 L 0.00 124.70 Z" fill="#f47d10" opacity="1.00" stroke="#f47d10" stroke-width="0.25"/>
<path d="M 254.42 125.25 C 256.43 129.03 257.28 133.27 258.78 137.24 C 262.33 147.33 266.10 157.34 269.85 167.35 C 272.31 173.93 275.76 180.20 277.15 187.13 C 262.77 186.56 248.37 186.71 233.97 186.63 C 220.32 186.67 206.67 186.44 193.02 186.82 C 196.79 184.84 199.86 181.80 203.05 179.02 C 220.44 161.81 237.90 144.64 254.89 127.03 C 254.78 126.59 254.54 125.70 254.42 125.25 Z" fill="#f7edc7" opacity="1.00" stroke="#f7edc7" stroke-width="0.25"/>
<path d="M 441.23 129.81 C 443.51 127.51 445.43 124.48 448.89 123.95 C 448.88 144.90 448.81 165.86 448.56 186.82 C 443.74 187.44 438.87 187.11 434.04 187.16 C 420.93 187.04 407.83 187.11 394.73 187.25 C 396.05 183.96 398.60 181.46 400.72 178.70 C 407.42 169.79 414.39 161.09 421.79 152.76 C 428.36 145.19 435.27 137.89 441.23 129.81 Z" fill="#f7edc7" opacity="1.00" stroke="#f7edc7" stroke-width="0.25"/>
<path d="M 458.25 180.32 C 476.25 163.22 493.94 145.77 512.00 128.74 L 512.00 186.79 C 503.60 186.93 495.14 186.14 486.79 187.21 C 475.10 187.12 463.40 187.45 451.72 186.96 C 453.41 184.30 455.94 182.40 458.25 180.32 Z" fill="#f7edc7" opacity="1.00" stroke="#f7edc7" stroke-width="0.25"/>
<path d="M 0.00 145.89 C 6.92 155.95 14.00 165.92 21.35 175.67 C 24.20 179.68 28.15 182.83 30.46 187.23 C 20.31 187.45 10.15 187.12 0.00 187.35 L 0.00 145.89 Z" fill="#f7edc7" opacity="1.00" stroke="#f7edc7" stroke-width="0.25"/>
<path d="M 163.87 156.87 C 166.83 153.64 170.08 150.66 172.58 147.04 C 174.85 166.33 180.90 184.94 184.06 204.09 C 187.73 220.23 190.45 236.56 194.03 252.72 C 207.68 252.89 221.33 252.77 234.98 252.79 C 241.59 252.84 248.23 252.46 254.82 253.22 C 255.14 255.22 255.42 257.23 255.85 259.21 C 249.37 266.64 241.66 272.86 234.49 279.60 C 223.40 290.14 212.04 300.40 200.49 310.44 C 197.99 312.33 196.71 315.64 193.52 316.55 C 182.49 305.19 170.67 294.66 159.39 283.55 C 149.15 273.83 138.65 264.35 128.81 254.23 C 118.11 264.44 108.63 275.82 98.86 286.89 C 90.73 296.38 82.26 305.63 74.92 315.75 C 71.24 315.95 67.55 316.08 63.86 315.98 C 64.72 312.04 64.23 307.99 64.28 303.99 C 64.29 288.65 64.23 273.30 64.26 257.96 C 64.16 256.04 64.29 253.65 62.54 252.42 C 62.39 231.15 62.41 209.87 62.54 188.61 C 84.69 189.29 106.84 189.17 128.99 189.25 C 130.49 189.06 132.40 189.71 133.59 188.49 C 144.09 178.35 153.75 167.39 163.87 156.87 Z" fill="#f47d10" opacity="1.00" stroke="#f47d10" stroke-width="0.25"/>
<path d="M 486.79 187.21 C 495.14 186.14 503.60 186.93 512.00 186.79 L 512.00 252.48 C 496.83 268.50 482.54 285.33 466.85 300.84 C 461.85 305.88 456.24 310.30 451.40 315.51 C 471.60 315.55 491.80 315.20 512.00 315.46 L 512.00 379.82 C 490.56 379.88 469.11 379.92 447.67 379.80 C 447.26 400.71 447.70 421.64 447.47 442.55 C 449.62 443.06 451.83 443.34 454.06 443.28 C 473.37 443.17 492.69 443.37 512.00 443.24 L 512.00 443.64 C 490.29 443.86 468.58 443.66 446.87 443.75 C 448.03 447.58 450.94 450.46 453.65 453.25 C 469.28 467.66 484.23 482.77 499.55 497.50 C 503.75 501.43 507.32 506.04 512.00 509.45 L 512.00 512.00 L 407.78 512.00 C 404.02 505.86 401.53 499.04 398.45 492.55 C 393.00 479.72 386.41 467.38 381.89 454.16 C 381.05 451.09 378.92 448.25 379.11 444.99 L 379.51 444.27 C 385.27 443.11 391.19 443.88 397.02 443.74 C 413.35 443.61 429.70 443.93 446.03 443.62 C 443.81 440.38 440.74 437.89 438.02 435.11 C 425.84 422.94 413.66 410.76 401.09 398.99 C 394.85 392.74 388.22 386.86 382.27 380.31 C 385.05 379.11 388.12 379.47 391.06 379.41 C 410.07 379.45 429.08 379.24 448.09 379.58 C 448.54 379.46 449.45 379.23 449.90 379.12 C 455.27 374.06 459.79 368.21 464.88 362.89 C 469.19 357.92 473.95 353.34 477.80 347.98 C 472.06 340.53 464.90 334.35 458.75 327.27 C 455.32 323.43 451.77 319.70 448.06 316.13 C 446.97 315.85 445.87 315.59 444.79 315.35 C 441.83 311.28 437.79 308.27 434.05 304.99 C 417.26 289.71 400.37 274.54 383.74 259.10 C 383.43 256.82 383.16 254.53 382.91 252.25 C 384.93 251.84 386.99 251.57 389.07 251.65 C 408.44 251.87 427.82 251.51 447.19 252.07 L 447.37 251.75 C 448.75 245.83 452.96 241.24 456.40 236.41 C 461.70 228.99 466.46 221.20 471.50 213.60 C 476.65 205.46 482.27 197.55 486.37 188.81 C 486.47 188.41 486.68 187.61 486.79 187.21 Z" fill="#00486c" opacity="1.00" stroke="#00486c" stroke-width="0.25"/>
<path d="M 0.00 187.76 C 8.95 187.74 17.91 187.56 26.85 187.89 C 22.53 193.20 18.10 198.42 13.79 203.74 C 9.26 209.33 4.18 214.47 0.00 220.34 L 0.00 187.76 Z" fill="#f7edc7" opacity="1.00" stroke="#f7edc7" stroke-width="0.25"/>
<path d="M 384.10 188.58 C 389.74 188.79 395.35 188.11 400.97 187.86 C 417.67 187.53 434.37 188.09 451.06 187.60 C 462.83 188.21 474.62 187.53 486.39 187.95 L 486.37 188.81 C 482.27 197.55 476.65 205.46 471.50 213.60 C 466.46 221.20 461.70 228.99 456.40 236.41 C 452.96 241.24 448.75 245.83 447.37 251.75 L 447.19 252.07 C 447.14 250.73 447.10 249.40 447.06 248.07 C 437.89 238.80 427.69 230.64 417.46 222.60 C 415.02 220.68 412.19 219.19 410.17 216.79 C 405.85 210.85 399.49 206.91 394.53 201.56 C 390.81 197.51 385.37 194.29 384.10 188.58 Z" fill="#f7edc7" opacity="1.00" stroke="#f7edc7" stroke-width="0.25"/>
<path d="M 318.00 188.65 C 331.66 188.11 345.34 188.60 359.02 188.48 C 367.38 188.59 375.75 188.12 384.10 188.58 C 385.37 194.29 390.81 197.51 394.53 201.56 C 399.49 206.91 405.85 210.85 410.17 216.79 C 412.19 219.19 415.02 220.68 417.46 222.60 C 427.69 230.64 437.89 238.80 447.06 248.07 C 447.10 249.40 447.14 250.73 447.19 252.07 C 427.82 251.51 408.44 251.87 389.07 251.65 C 386.99 251.57 384.93 251.84 382.91 252.25 C 378.28 252.93 373.58 252.51 368.93 252.67 C 351.75 252.62 334.57 252.93 317.39 252.65 C 318.44 231.35 317.39 209.97 318.00 188.65 Z" fill="#f47d10" opacity="1.00" stroke="#f47d10" stroke-width="0.25"/>
<path d="M 0.00 252.51 C 20.85 252.39 41.70 252.66 62.54 252.42 C 64.29 253.65 64.16 256.04 64.26 257.96 C 64.23 273.30 64.29 288.65 64.28 303.99 C 64.23 307.99 64.72 312.04 63.86 315.98 L 63.83 315.98 C 52.22 315.37 40.57 315.85 28.94 315.58 C 19.29 315.65 9.64 315.23 0.00 315.71 L 0.00 252.51 Z" fill="#f7edc7" opacity="1.00" stroke="#f7edc7" stroke-width="0.25"/>
<path d="M 317.39 252.65 C 334.57 252.93 351.75 252.62 368.93 252.67 C 373.58 252.51 378.28 252.93 382.91 252.25 C 383.16 254.53 383.43 256.82 383.74 259.10 C 400.37 274.54 417.26 289.71 434.05 304.99 C 437.79 308.27 441.83 311.28 444.79 315.35 C 445.87 315.59 446.97 315.85 448.06 316.13 C 448.39 337.28 448.26 358.43 448.09 379.58 C 429.08 379.24 410.07 379.45 391.06 379.41 C 388.12 379.47 385.05 379.11 382.27 380.31 C 382.23 380.27 382.15 380.18 382.11 380.14 C 382.13 366.76 382.17 353.38 381.99 340.01 C 382.34 331.84 381.16 323.60 382.42 315.50 L 382.53 314.68 C 379.34 311.46 375.90 308.50 372.60 305.38 C 365.66 299.11 359.39 292.09 351.99 286.33 C 340.02 295.45 328.15 304.76 317.33 315.24 C 317.14 294.38 317.24 273.51 317.39 252.65 Z" fill="#f7edc7" opacity="1.00" stroke="#f7edc7" stroke-width="0.25"/>
<path d="M 466.85 300.84 C 482.54 285.33 496.83 268.50 512.00 252.48 L 512.00 315.46 C 491.80 315.20 471.60 315.55 451.40 315.51 C 456.24 310.30 461.85 305.88 466.85 300.84 Z" fill="#f7edc7" opacity="1.00" stroke="#f7edc7" stroke-width="0.25"/>
<path d="M 98.86 286.89 C 108.63 275.82 118.11 264.44 128.81 254.23 C 138.65 264.35 149.15 273.83 159.39 283.55 C 170.67 294.66 182.49 305.19 193.52 316.55 C 193.40 316.66 193.18 316.88 193.07 316.98 C 192.46 338.19 193.06 359.44 192.63 380.66 C 171.30 380.94 149.96 380.69 128.62 380.81 C 128.59 380.44 128.54 379.71 128.51 379.34 C 128.88 358.29 128.64 337.24 128.76 316.19 C 121.22 316.30 113.68 316.27 106.14 316.36 C 101.21 316.30 96.27 316.65 91.35 316.21 C 85.91 315.43 80.40 315.57 74.92 315.75 C 82.26 305.63 90.73 296.38 98.86 286.89 Z" fill="#00486c" opacity="1.00" stroke="#00486c" stroke-width="0.25"/>
<path d="M 234.49 279.60 C 241.66 272.86 249.37 266.64 255.85 259.21 C 259.62 263.77 264.36 267.37 268.52 271.56 C 281.40 284.34 294.27 297.12 307.24 309.82 C 309.81 312.14 311.88 315.53 315.61 316.04 C 303.69 328.63 290.02 339.54 278.88 352.92 C 272.60 359.06 267.16 366.11 260.21 371.54 C 253.52 365.55 246.25 360.26 239.15 354.78 C 228.91 346.74 219.07 338.20 208.77 330.24 C 203.26 326.15 199.15 320.22 193.07 316.98 C 193.18 316.88 193.40 316.66 193.52 316.55 C 196.71 315.64 197.99 312.33 200.49 310.44 C 212.04 300.40 223.40 290.14 234.49 279.60 Z" fill="#f7edc7" opacity="1.00" stroke="#f7edc7" stroke-width="0.25"/>
<path d="M 317.33 315.24 C 328.15 304.76 340.02 295.45 351.99 286.33 C 359.39 292.09 365.66 299.11 372.60 305.38 C 375.90 308.50 379.34 311.46 382.53 314.68 L 382.42 315.50 C 361.46 315.94 340.48 315.38 319.52 315.78 C 318.12 317.36 320.72 318.50 321.48 319.66 C 336.52 334.56 352.33 348.69 366.66 364.30 C 371.90 369.49 376.57 375.25 382.11 380.14 C 382.15 380.18 382.23 380.27 382.27 380.31 C 388.22 386.86 394.85 392.74 401.09 398.99 C 413.66 410.76 425.84 422.94 438.02 435.11 C 440.74 437.89 443.81 440.38 446.03 443.62 C 429.70 443.93 413.35 443.61 397.02 443.74 C 391.19 443.88 385.27 443.11 379.51 444.27 L 379.11 444.99 C 378.92 448.25 381.05 451.09 381.89 454.16 C 386.41 467.38 393.00 479.72 398.45 492.55 C 401.53 499.04 404.02 505.86 407.78 512.00 L 259.78 512.00 L 259.01 511.45 C 279.34 511.40 299.68 511.63 320.00 511.12 C 322.64 509.46 324.42 506.77 326.52 504.52 C 335.47 493.82 344.77 483.42 354.33 473.27 C 362.32 464.39 370.89 456.00 378.32 446.65 C 378.23 446.27 378.05 445.52 377.96 445.14 C 377.18 444.26 376.21 443.83 375.04 443.86 C 350.70 443.85 326.34 443.67 302.00 443.75 C 297.00 444.10 291.99 444.59 286.99 443.93 C 281.87 444.07 276.71 444.61 271.62 443.64 C 281.40 442.59 291.26 443.68 301.04 442.72 C 318.37 442.90 335.71 442.46 353.03 443.10 C 360.51 443.01 368.00 443.39 375.49 443.04 C 365.57 433.04 356.37 422.35 347.71 411.25 C 340.81 402.78 334.53 393.82 327.38 385.56 C 325.45 383.54 323.66 381.03 320.81 380.29 C 310.55 379.61 300.23 379.78 289.95 380.14 C 281.65 379.91 273.35 379.84 265.05 379.86 C 260.78 379.31 258.82 383.67 256.21 386.16 C 237.84 405.89 218.76 424.94 199.96 444.24 C 198.40 444.22 196.84 444.16 195.28 444.11 L 195.15 443.45 C 195.03 440.94 193.81 438.72 191.90 437.13 C 184.65 430.63 177.20 424.32 169.14 418.84 C 161.47 413.64 154.11 407.98 146.98 402.06 C 140.13 395.71 133.92 388.66 128.09 381.38 C 124.76 381.83 123.54 385.36 121.37 387.44 C 113.77 395.52 105.97 403.39 97.95 411.05 C 96.04 412.53 98.07 414.60 99.20 415.82 C 106.44 423.27 112.67 431.61 119.94 439.04 C 121.30 440.47 122.51 442.04 123.66 443.65 C 111.77 443.59 99.88 443.74 87.99 443.82 C 80.66 444.48 73.31 444.12 65.97 443.92 C 63.42 444.28 63.73 440.95 62.08 439.84 C 47.76 427.87 32.71 416.74 19.00 404.04 C 12.53 397.89 6.25 391.54 0.00 385.17 L 0.00 380.61 C 21.26 380.80 42.52 380.81 63.78 380.56 C 64.25 380.53 65.17 380.48 65.63 380.45 C 73.26 366.94 78.10 352.10 83.75 337.71 C 86.25 330.53 88.96 323.42 91.35 316.21 C 96.27 316.65 101.21 316.30 106.14 316.36 C 108.43 320.72 109.50 325.56 110.90 330.25 C 114.04 340.91 117.78 351.37 121.36 361.88 C 123.56 367.77 125.40 373.84 128.51 379.34 C 128.54 379.71 128.59 380.44 128.62 380.81 C 149.96 380.69 171.30 380.94 192.63 380.66 C 193.06 359.44 192.46 338.19 193.07 316.98 C 199.15 320.22 203.26 326.15 208.77 330.24 C 219.07 338.20 228.91 346.74 239.15 354.78 C 246.25 360.26 253.52 365.55 260.21 371.54 C 267.16 366.11 272.60 359.06 278.88 352.92 C 290.02 339.54 303.69 328.63 315.61 316.04 C 316.04 315.84 316.90 315.44 317.33 315.24 Z" fill="#f47d10" opacity="1.00" stroke="#f47d10" stroke-width="0.25"/>
<path d="M 0.00 315.71 C 9.64 315.23 19.29 315.65 28.94 315.58 C 40.57 315.85 52.22 315.37 63.83 315.98 C 61.42 320.06 58.14 323.53 54.76 326.82 C 36.85 344.08 18.47 360.85 0.00 377.50 L 0.00 315.71 Z" fill="#f47d10" opacity="1.00" stroke="#f47d10" stroke-width="0.25"/>
<path d="M 63.83 315.98 L 63.86 315.98 C 63.14 320.63 63.67 325.35 63.54 330.03 C 63.46 346.87 63.93 363.71 63.78 380.56 C 42.52 380.81 21.26 380.80 0.00 380.61 L 0.00 377.50 C 18.47 360.85 36.85 344.08 54.76 326.82 C 58.14 323.53 61.42 320.06 63.83 315.98 Z" fill="#00486c" opacity="1.00" stroke="#00486c" stroke-width="0.25"/>
<path d="M 63.86 315.98 C 67.55 316.08 71.24 315.95 74.92 315.75 C 80.40 315.57 85.91 315.43 91.35 316.21 C 88.96 323.42 86.25 330.53 83.75 337.71 C 78.10 352.10 73.26 366.94 65.63 380.45 C 65.17 380.48 64.25 380.53 63.78 380.56 C 63.93 363.71 63.46 346.87 63.54 330.03 C 63.67 325.35 63.14 320.63 63.86 315.98 Z" fill="#f7edc7" opacity="1.00" stroke="#f7edc7" stroke-width="0.25"/>
<path d="M 106.14 316.36 C 113.68 316.27 121.22 316.30 128.76 316.19 C 128.64 337.24 128.88 358.29 128.51 379.34 C 125.40 373.84 123.56 367.77 121.36 361.88 C 117.78 351.37 114.04 340.91 110.90 330.25 C 109.50 325.56 108.43 320.72 106.14 316.36 Z" fill="#f7edc7" opacity="1.00" stroke="#f7edc7" stroke-width="0.25"/>
<path d="M 319.52 315.78 C 340.48 315.38 361.46 315.94 382.42 315.50 C 381.16 323.60 382.34 331.84 381.99 340.01 C 382.17 353.38 382.13 366.76 382.11 380.14 C 376.57 375.25 371.90 369.49 366.66 364.30 C 352.33 348.69 336.52 334.56 321.48 319.66 C 320.72 318.50 318.12 317.36 319.52 315.78 Z" fill="#00486c" opacity="1.00" stroke="#00486c" stroke-width="0.25"/>
<path d="M 448.06 316.13 C 451.77 319.70 455.32 323.43 458.75 327.27 C 464.90 334.35 472.06 340.53 477.80 347.98 C 473.95 353.34 469.19 357.92 464.88 362.89 C 459.79 368.21 455.27 374.06 449.90 379.12 C 449.45 379.23 448.54 379.46 448.09 379.58 C 448.26 358.43 448.39 337.28 448.06 316.13 Z" fill="#f47d10" opacity="1.00" stroke="#f47d10" stroke-width="0.25"/>
<path d="M 256.21 386.16 C 258.82 383.67 260.78 379.31 265.05 379.86 C 273.35 379.84 281.65 379.91 289.95 380.14 C 300.23 379.78 310.55 379.61 320.81 380.29 C 307.14 397.42 292.74 413.98 279.70 431.61 C 276.91 435.65 272.72 438.87 271.17 443.67 C 267.17 444.45 263.09 444.13 259.05 444.17 C 239.36 444.25 219.66 444.17 199.96 444.24 C 218.76 424.94 237.84 405.89 256.21 386.16 Z" fill="#00486c" opacity="1.00" stroke="#00486c" stroke-width="0.25"/>
<path d="M 447.67 379.80 C 469.11 379.92 490.56 379.88 512.00 379.82 L 512.00 443.24 C 492.69 443.37 473.37 443.17 454.06 443.28 C 451.83 443.34 449.62 443.06 447.47 442.55 C 447.70 421.64 447.26 400.71 447.67 379.80 Z" fill="#f7edc7" opacity="1.00" stroke="#f7edc7" stroke-width="0.25"/>
<path d="M 320.81 380.29 C 323.66 381.03 325.45 383.54 327.38 385.56 C 334.53 393.82 340.81 402.78 347.71 411.25 C 356.37 422.35 365.57 433.04 375.49 443.04 C 368.00 443.39 360.51 443.01 353.03 443.10 C 335.71 442.46 318.37 442.90 301.04 442.72 C 291.26 443.68 281.40 442.59 271.62 443.64 C 276.71 444.61 281.87 444.07 286.99 443.93 C 291.99 444.59 297.00 444.10 302.00 443.75 C 326.34 443.67 350.70 443.85 375.04 443.86 C 376.21 443.83 377.18 444.26 377.96 445.14 C 378.05 445.52 378.23 446.27 378.32 446.65 C 370.89 456.00 362.32 464.39 354.33 473.27 C 344.77 483.42 335.47 493.82 326.52 504.52 C 324.42 506.77 322.64 509.46 320.00 511.12 C 299.68 511.63 279.34 511.40 259.01 511.45 C 253.46 506.90 249.22 501.01 244.11 496.01 C 235.54 487.55 227.24 478.81 218.66 470.36 C 212.06 462.98 204.63 456.37 198.20 448.83 C 197.05 447.38 195.66 445.99 195.28 444.11 C 196.84 444.16 198.40 444.22 199.96 444.24 C 219.66 444.17 239.36 444.25 259.05 444.17 C 263.09 444.13 267.17 444.45 271.17 443.67 C 272.72 438.87 276.91 435.65 279.70 431.61 C 292.74 413.98 307.14 397.42 320.81 380.29 Z" fill="#f7edc7" opacity="1.00" stroke="#f7edc7" stroke-width="0.25"/>
<path d="M 121.37 387.44 C 123.54 385.36 124.76 381.83 128.09 381.38 C 127.92 402.14 128.28 422.91 128.05 443.67 C 126.58 443.71 125.12 443.68 123.66 443.65 C 122.51 442.04 121.30 440.47 119.94 439.04 C 112.67 431.61 106.44 423.27 99.20 415.82 C 98.07 414.60 96.04 412.53 97.95 411.05 C 105.97 403.39 113.77 395.52 121.37 387.44 Z" fill="#00486c" opacity="1.00" stroke="#00486c" stroke-width="0.25"/>
<path d="M 128.09 381.38 C 133.92 388.66 140.13 395.71 146.98 402.06 C 154.11 407.98 161.47 413.64 169.14 418.84 C 177.20 424.32 184.65 430.63 191.90 437.13 C 193.81 438.72 195.03 440.94 195.15 443.45 C 180.09 442.93 165.01 443.27 149.95 443.13 C 143.30 442.84 136.64 442.66 129.99 442.93 C 129.50 443.12 128.53 443.48 128.05 443.67 C 128.28 422.91 127.92 402.14 128.09 381.38 Z" fill="#f7edc7" opacity="1.00" stroke="#f7edc7" stroke-width="0.25"/>
<path d="M 0.00 385.17 C 6.25 391.54 12.53 397.89 19.00 404.04 C 32.71 416.74 47.76 427.87 62.08 439.84 C 63.73 440.95 63.42 444.28 65.97 443.92 C 73.31 444.12 80.66 444.48 87.99 443.82 C 99.88 443.74 111.77 443.59 123.66 443.65 C 125.12 443.68 126.58 443.71 128.05 443.67 C 128.72 444.80 129.39 445.93 130.02 447.09 C 129.71 448.69 129.65 450.40 128.91 451.89 C 125.53 457.94 120.12 462.40 115.15 467.08 C 105.92 475.54 96.48 483.76 87.00 491.93 C 81.19 496.77 76.15 502.50 69.88 506.79 C 67.76 508.49 64.96 509.59 63.54 512.00 L 63.27 512.00 C 62.29 489.09 63.29 466.16 63.15 443.24 C 42.10 443.26 21.06 442.58 0.00 442.80 L 0.00 385.17 Z" fill="#f7edc7" opacity="1.00" stroke="#f7edc7" stroke-width="0.25"/>
<path d="M 0.00 442.80 C 21.06 442.58 42.10 443.26 63.15 443.24 C 63.29 466.16 62.29 489.09 63.27 512.00 L 29.03 512.00 C 21.97 499.38 15.42 486.48 8.39 473.84 C 5.71 468.70 3.31 463.39 0.00 458.61 L 0.00 442.80 Z" fill="#00486c" opacity="1.00" stroke="#00486c" stroke-width="0.25"/>
<path d="M 128.05 443.67 C 128.53 443.48 129.50 443.12 129.99 442.93 C 136.64 442.66 143.30 442.84 149.95 443.13 C 165.01 443.27 180.09 442.93 195.15 443.45 L 195.28 444.11 C 195.66 445.99 197.05 447.38 198.20 448.83 C 204.63 456.37 212.06 462.98 218.66 470.36 C 227.24 478.81 235.54 487.55 244.11 496.01 C 249.22 501.01 253.46 506.90 259.01 511.45 L 259.78 512.00 L 189.48 512.00 C 180.35 503.32 171.45 494.38 162.13 485.89 C 149.73 474.53 137.87 462.12 130.02 447.09 C 129.39 445.93 128.72 444.80 128.05 443.67 Z" fill="#00486c" opacity="1.00" stroke="#00486c" stroke-width="0.25"/>
<path d="M 446.87 443.75 C 468.58 443.66 490.29 443.86 512.00 443.64 L 512.00 509.45 C 507.32 506.04 503.75 501.43 499.55 497.50 C 484.23 482.77 469.28 467.66 453.65 453.25 C 450.94 450.46 448.03 447.58 446.87 443.75 Z" fill="#f7edc7" opacity="1.00" stroke="#f7edc7" stroke-width="0.25"/>
<path d="M 130.02 447.09 C 137.87 462.12 149.73 474.53 162.13 485.89 C 171.45 494.38 180.35 503.32 189.48 512.00 L 135.79 512.00 C 134.36 510.67 133.42 508.09 131.11 508.26 C 118.40 508.36 105.69 508.28 92.98 508.37 C 88.61 508.44 84.14 508.21 79.94 509.65 C 79.68 510.24 79.15 511.41 78.88 512.00 L 63.54 512.00 C 64.96 509.59 67.76 508.49 69.88 506.79 C 76.15 502.50 81.19 496.77 87.00 491.93 C 96.48 483.76 105.92 475.54 115.15 467.08 C 120.12 462.40 125.53 457.94 128.91 451.89 C 129.65 450.40 129.71 448.69 130.02 447.09 Z" fill="#f47d10" opacity="1.00" stroke="#f47d10" stroke-width="0.25"/>
<path d="M 0.00 458.61 C 3.31 463.39 5.71 468.70 8.39 473.84 C 15.42 486.48 21.97 499.38 29.03 512.00 L 0.00 512.00 L 0.00 458.61 Z" fill="#f47d10" opacity="1.00" stroke="#f47d10" stroke-width="0.25"/>
<path d="M 79.94 509.65 C 84.14 508.21 88.61 508.44 92.98 508.37 C 105.69 508.28 118.40 508.36 131.11 508.26 C 133.42 508.09 134.36 510.67 135.79 512.00 L 78.88 512.00 C 79.15 511.41 79.68 510.24 79.94 509.65 Z" fill="#00486c" opacity="1.00" stroke="#00486c" stroke-width="0.25"/>
</svg>